# xmcd
#
# Track frame offsets:
#	150
#	17847
#	29607
#	42987
#	54090
#	65195
#	76962
#	88567
#	99972
#	123600
#
# Disc length: 1867 seconds
#
# Revision: 2
# Processed by: cddbd v1.5.2PL0 Copyright (c) Steve Scherf et al.
# Submitted via: dBpowerAMP V4.0
#
DISCID=7d07490a
DTITLE=Bobby Bland, BB King, Jr Parker - Best Of
DYEAR=1973
DGENRE=Blues
TTITLE0=01 Don't Answer the Door (Bobby and B.B.)
TTITLE1=02 Don't Cry No More (Bobby and B.B.)
TTITLE2=03 Farther Up the Road (Bobby and Jr. Parker)
TTITLE3=04 Wondering (Bobby and Jr. Parker)
TTITLE4=05 You Got Me (Where You Want Me) (Bobby)
TTITLE5=06 I Smell Trouble (Bobby)
TTITLE6=07 Wondering (Bobby and Jr. Parker)
TTITLE7=08 Stand By Me (Jr. Parker)
TTITLE8=09 Let The Good Times Roll (Bobby and B.B.)
TTITLE9=10 Ain't Nobody Home (B.B.King)
EXTD=
EXTT0=
EXTT1=
EXTT2=
EXTT3=
EXTT4=
EXTT5=
EXTT6=
EXTT7=
EXTT8=
EXTT9=
PLAYORDER=
